<svg width="23" height="23" viewBox="0 0 23 23" fill="none" xmlns="http://www.w3.org/2000/svg">
<path d="M16.7084 2.125C16.982 1.85141 17.3068 1.63439 17.6642 1.48633C18.0217 1.33826 18.4048 1.26205 18.7917 1.26205C19.1786 1.26205 19.5617 1.33826 19.9192 1.48633C20.2767 1.63439 20.6015 1.85141 20.875 2.125C21.1486 2.39859 21.3657 2.72338 21.5137 3.08084C21.6618 3.4383 21.738 3.82142 21.738 4.20833C21.738 4.59524 21.6618 4.97837 21.5137 5.33582C21.3657 5.69328 21.1486 6.01808 20.875 6.29167L6.81254 20.3542L1.08337 21.9167L2.64587 16.1875L16.7084 2.125Z" stroke="#94A3BD" stroke-width="2" stroke-linecap="round" stroke-linejoin="round"/>
</svg>
